<?xml version="1.0" encoding="UTF-8" standalone="no"?>
<!DOCTYPE svg PUBLIC "-//W3C//DTD SVG 1.1//EN"
 "http://www.w3.org/Graphics/SVG/1.1/DTD/svg11.dtd">
<!-- Generated by graphviz version 2.43.0 (0)
 -->
<!-- Title: wcpdata Pages: 1 -->
<svg width="889pt" height="697pt"
 viewBox="0.00 0.00 888.78 697.34" xmlns="http://www.w3.org/2000/svg" xmlns:xlink="http://www.w3.org/1999/xlink">
<g id="graph0" class="graph" transform="scale(1 1) rotate(0) translate(4 693.34)">
<title>wcpdata</title>
<polygon fill="white" stroke="transparent" points="-4,4 -4,-693.34 884.78,-693.34 884.78,4 -4,4"/>
<!-- cluster_vertex_graph -->
<g id="node1" class="node">
<title>cluster_vertex_graph</title>
<polygon fill="none" stroke="black" points="880.57,-474.17 880.57,-498.33 828.68,-515.42 755.31,-515.42 703.43,-498.33 703.43,-474.17 755.31,-457.08 828.68,-457.08 880.57,-474.17"/>
<text text-anchor="middle" x="792" y="-490.05" font-family="Times,serif" font-size="14.00">Graph:</text>
<text text-anchor="middle" x="792" y="-475.05" font-family="Times,serif" font-size="14.00">cluster&#45;vertex</text>
</g>
<!-- PR3DCluster -->
<g id="node5" class="node">
<title>PR3DCluster</title>
<polygon fill="none" stroke="black" points="764,-406.17 654,-406.17 654,-370.17 764,-370.17 764,-406.17"/>
<text text-anchor="middle" x="709" y="-384.47" font-family="Times,serif" font-size="14.00">PR3DCluster</text>
</g>
<!-- cluster_vertex_graph&#45;&gt;PR3DCluster -->
<g id="edge5" class="edge">
<title>cluster_vertex_graph&#45;&gt;PR3DCluster</title>
<path fill="none" stroke="black" d="M767.55,-456.94C755.82,-443.37 741.91,-427.26 730.58,-414.15"/>
<polygon fill="black" stroke="black" points="733.1,-411.71 723.91,-406.43 727.8,-416.28 733.1,-411.71"/>
<text text-anchor="middle" x="762.5" y="-427.97" font-family="Times,serif" font-size="14.00">has</text>
</g>
<!-- ProtoVertex -->
<g id="node9" class="node">
<title>ProtoVertex</title>
<polygon fill="none" stroke="black" points="584,-210 482,-210 482,-174 584,-174 584,-210"/>
<text text-anchor="middle" x="533" y="-188.3" font-family="Times,serif" font-size="14.00">ProtoVertex</text>
</g>
<!-- cluster_vertex_graph&#45;&gt;ProtoVertex -->
<g id="edge6" class="edge">
<title>cluster_vertex_graph&#45;&gt;ProtoVertex</title>
<path fill="none" stroke="black" d="M791.85,-456.9C790.7,-432.71 786.52,-397.6 773,-370.17 734.75,-292.55 712.97,-274.5 640,-228 626.01,-219.08 609.53,-212.23 593.76,-207.06"/>
<polygon fill="black" stroke="black" points="594.64,-203.67 584.05,-204.05 592.57,-210.35 594.64,-203.67"/>
<text text-anchor="middle" x="775.5" y="-340.97" font-family="Times,serif" font-size="14.00">has</text>
</g>
<!-- cluster_segment_graph -->
<g id="node2" class="node">
<title>cluster_segment_graph</title>
<polygon fill="none" stroke="black" points="685.06,-474.17 685.06,-498.33 625.86,-515.42 542.14,-515.42 482.94,-498.33 482.94,-474.17 542.14,-457.08 625.86,-457.08 685.06,-474.17"/>
<text text-anchor="middle" x="584" y="-490.05" font-family="Times,serif" font-size="14.00">Graph:</text>
<text text-anchor="middle" x="584" y="-475.05" font-family="Times,serif" font-size="14.00">cluster&#45;segment</text>
</g>
<!-- cluster_segment_graph&#45;&gt;PR3DCluster -->
<g id="edge7" class="edge">
<title>cluster_segment_graph&#45;&gt;PR3DCluster</title>
<path fill="none" stroke="black" d="M620.83,-456.94C639.15,-442.86 661.03,-426.04 678.41,-412.68"/>
<polygon fill="black" stroke="black" points="680.75,-415.3 686.54,-406.43 676.48,-409.75 680.75,-415.3"/>
<text text-anchor="middle" x="673.5" y="-427.97" font-family="Times,serif" font-size="14.00">has</text>
</g>
<!-- ProtoSegment -->
<g id="node8" class="node">
<title>ProtoSegment</title>
<polygon fill="none" stroke="black" points="321.5,-210 202.5,-210 202.5,-174 321.5,-174 321.5,-210"/>
<text text-anchor="middle" x="262" y="-188.3" font-family="Times,serif" font-size="14.00">ProtoSegment</text>
</g>
<!-- cluster_segment_graph&#45;&gt;ProtoSegment -->
<g id="edge8" class="edge">
<title>cluster_segment_graph&#45;&gt;ProtoSegment</title>
<path fill="none" stroke="black" d="M589.85,-457.06C600.01,-399.16 612.87,-268.83 533,-228 498.95,-210.59 400.3,-201.23 331.93,-196.68"/>
<polygon fill="black" stroke="black" points="331.85,-193.17 321.65,-196.02 331.4,-200.16 331.85,-193.17"/>
<text text-anchor="middle" x="609.5" y="-340.97" font-family="Times,serif" font-size="14.00">has</text>
</g>
<!-- shower_vertex_segment_graph -->
<g id="node3" class="node">
<title>shower_vertex_segment_graph</title>
<polygon fill="none" stroke="black" points="456.65,-474.17 456.65,-498.33 374.26,-515.42 257.74,-515.42 175.34,-498.33 175.34,-474.17 257.74,-457.08 374.26,-457.08 456.65,-474.17"/>
<text text-anchor="middle" x="316" y="-490.05" font-family="Times,serif" font-size="14.00">Graph:</text>
<text text-anchor="middle" x="316" y="-475.05" font-family="Times,serif" font-size="14.00">shower&#45;vertex&#45;segment</text>
</g>
<!-- WCShower -->
<g id="node7" class="node">
<title>WCShower</title>
<polygon fill="none" stroke="black" points="350.5,-406.17 255.5,-406.17 255.5,-370.17 350.5,-370.17 350.5,-406.17"/>
<text text-anchor="middle" x="303" y="-384.47" font-family="Times,serif" font-size="14.00">WCShower</text>
</g>
<!-- shower_vertex_segment_graph&#45;&gt;WCShower -->
<g id="edge9" class="edge">
<title>shower_vertex_segment_graph&#45;&gt;WCShower</title>
<path fill="none" stroke="black" d="M312.17,-456.94C310.44,-444.14 308.4,-429.08 306.68,-416.41"/>
<polygon fill="black" stroke="black" points="310.14,-415.87 305.33,-406.43 303.21,-416.81 310.14,-415.87"/>
<text text-anchor="middle" x="322.5" y="-427.97" font-family="Times,serif" font-size="14.00">has</text>
</g>
<!-- shower_vertex_segment_graph&#45;&gt;ProtoSegment -->
<g id="edge11" class="edge">
<title>shower_vertex_segment_graph&#45;&gt;ProtoSegment</title>
<path fill="none" stroke="black" d="M226.55,-463.51C154.29,-440.72 57.27,-397.05 11,-319.17 -2.21,-296.94 -4.71,-281.53 11,-261 33.02,-232.22 126.1,-212.8 192.47,-202.31"/>
<polygon fill="black" stroke="black" points="193.12,-205.76 202.47,-200.77 192.06,-198.84 193.12,-205.76"/>
<text text-anchor="middle" x="46.5" y="-340.97" font-family="Times,serif" font-size="14.00">has</text>
</g>
<!-- shower_vertex_segment_graph&#45;&gt;ProtoVertex -->
<g id="edge10" class="edge">
<title>shower_vertex_segment_graph&#45;&gt;ProtoVertex</title>
<path fill="none" stroke="black" d="M387.17,-459.69C446.43,-434.17 526.91,-388.65 564,-319.17 581.1,-287.13 564.43,-245.48 549.7,-218.99"/>
<polygon fill="black" stroke="black" points="552.69,-217.16 544.63,-210.29 546.64,-220.69 552.69,-217.16"/>
<text text-anchor="middle" x="565.5" y="-340.97" font-family="Times,serif" font-size="14.00">has</text>
</g>
<!-- segment_vertex_graph -->
<g id="node4" class="node">
<title>segment_vertex_graph</title>
<polygon fill="none" stroke="black" points="401.71,-278 401.71,-302.17 340.37,-319.25 253.63,-319.25 192.29,-302.17 192.29,-278 253.63,-260.92 340.37,-260.92 401.71,-278"/>
<text text-anchor="middle" x="297" y="-293.88" font-family="Times,serif" font-size="14.00">Graph:</text>
<text text-anchor="middle" x="297" y="-278.88" font-family="Times,serif" font-size="14.00">segement&#45;vertex</text>
</g>
<!-- segment_vertex_graph&#45;&gt;ProtoSegment -->
<g id="edge18" class="edge">
<title>segment_vertex_graph&#45;&gt;ProtoSegment</title>
<path fill="none" stroke="black" d="M286.69,-260.78C281.98,-247.85 276.43,-232.61 271.78,-219.86"/>
<polygon fill="black" stroke="black" points="275,-218.46 268.29,-210.26 268.42,-220.86 275,-218.46"/>
<text text-anchor="middle" x="292.5" y="-231.8" font-family="Times,serif" font-size="14.00">has</text>
</g>
<!-- segment_vertex_graph&#45;&gt;ProtoVertex -->
<g id="edge19" class="edge">
<title>segment_vertex_graph&#45;&gt;ProtoVertex</title>
<path fill="none" stroke="black" d="M355.94,-265.09C394.54,-249.37 444.5,-229.03 481.51,-213.96"/>
<polygon fill="black" stroke="black" points="483.16,-217.07 491.1,-210.06 480.52,-210.59 483.16,-217.07"/>
<text text-anchor="middle" x="456.5" y="-231.8" font-family="Times,serif" font-size="14.00">has</text>
</g>
<!-- NeutrinoID -->
<g id="node6" class="node">
<title>NeutrinoID</title>
<polygon fill="none" stroke="black" points="632.5,-602.34 535.5,-602.34 535.5,-566.34 632.5,-566.34 632.5,-602.34"/>
<text text-anchor="middle" x="584" y="-580.64" font-family="Times,serif" font-size="14.00">NeutrinoID</text>
</g>
<!-- NeutrinoID&#45;&gt;cluster_vertex_graph -->
<g id="edge2" class="edge">
<title>NeutrinoID&#45;&gt;cluster_vertex_graph</title>
<path fill="none" stroke="black" d="M621.19,-566.16C651.86,-551.99 695.99,-531.6 731.71,-515.1"/>
<polygon fill="black" stroke="black" points="733.46,-518.15 741.07,-510.78 730.53,-511.79 733.46,-518.15"/>
<text text-anchor="middle" x="700.5" y="-537.14" font-family="Times,serif" font-size="14.00">has</text>
</g>
<!-- NeutrinoID&#45;&gt;cluster_segment_graph -->
<g id="edge3" class="edge">
<title>NeutrinoID&#45;&gt;cluster_segment_graph</title>
<path fill="none" stroke="black" d="M584,-566.16C584,-554.97 584,-539.92 584,-525.96"/>
<polygon fill="black" stroke="black" points="587.5,-525.58 584,-515.58 580.5,-525.58 587.5,-525.58"/>
<text text-anchor="middle" x="596.5" y="-537.14" font-family="Times,serif" font-size="14.00">has</text>
</g>
<!-- NeutrinoID&#45;&gt;shower_vertex_segment_graph -->
<g id="edge4" class="edge">
<title>NeutrinoID&#45;&gt;shower_vertex_segment_graph</title>
<path fill="none" stroke="black" d="M536.4,-566.27C497.78,-552.42 442.47,-532.6 396.92,-516.27"/>
<polygon fill="black" stroke="black" points="397.96,-512.92 387.36,-512.84 395.59,-519.51 397.96,-512.92"/>
<text text-anchor="middle" x="494.5" y="-537.14" font-family="Times,serif" font-size="14.00">has</text>
</g>
<!-- WCShower&#45;&gt;segment_vertex_graph -->
<g id="edge17" class="edge">
<title>WCShower&#45;&gt;segment_vertex_graph</title>
<path fill="none" stroke="black" d="M301.93,-369.99C301.23,-358.81 300.29,-343.75 299.42,-329.79"/>
<polygon fill="black" stroke="black" points="302.88,-329.18 298.77,-319.41 295.9,-329.61 302.88,-329.18"/>
<text text-anchor="middle" x="313.5" y="-340.97" font-family="Times,serif" font-size="14.00">has</text>
</g>
<!-- start_segment -->
<g id="node15" class="node">
<title>start_segment</title>
<ellipse fill="none" stroke="black" cx="97" cy="-290.08" rx="77.19" ry="18"/>
<text text-anchor="middle" x="97" y="-286.38" font-family="Times,serif" font-size="14.00">start_segment</text>
</g>
<!-- WCShower&#45;&gt;start_segment -->
<g id="edge15" class="edge">
<title>WCShower&#45;&gt;start_segment</title>
<path fill="none" stroke="black" d="M266.17,-369.99C230.54,-353.37 176.58,-328.2 139.23,-310.78"/>
<polygon fill="black" stroke="black" points="140.65,-307.58 130.11,-306.53 137.69,-313.93 140.65,-307.58"/>
<text text-anchor="middle" x="237.5" y="-340.97" font-family="Times,serif" font-size="14.00">has</text>
</g>
<!-- start_vertex -->
<g id="node16" class="node">
<title>start_vertex</title>
<ellipse fill="none" stroke="black" cx="487" cy="-290.08" rx="67.69" ry="18"/>
<text text-anchor="middle" x="487" y="-286.38" font-family="Times,serif" font-size="14.00">start_vertex</text>
</g>
<!-- WCShower&#45;&gt;start_vertex -->
<g id="edge16" class="edge">
<title>WCShower&#45;&gt;start_vertex</title>
<path fill="none" stroke="black" d="M335.89,-369.99C367.55,-353.46 415.39,-328.48 448.73,-311.07"/>
<polygon fill="black" stroke="black" points="450.48,-314.1 457.72,-306.37 447.24,-307.9 450.48,-314.1"/>
<text text-anchor="middle" x="407.5" y="-340.97" font-family="Times,serif" font-size="14.00">has</text>
</g>
<!-- segment_points -->
<g id="node12" class="node">
<title>segment_points</title>
<ellipse fill="none" stroke="black" cx="262" cy="-105" rx="83.69" ry="18"/>
<text text-anchor="middle" x="262" y="-101.3" font-family="Times,serif" font-size="14.00">segment_points</text>
</g>
<!-- ProtoSegment&#45;&gt;segment_points -->
<g id="edge12" class="edge">
<title>ProtoSegment&#45;&gt;segment_points</title>
<path fill="none" stroke="black" d="M262,-173.8C262,-162.16 262,-146.55 262,-133.24"/>
<polygon fill="black" stroke="black" points="265.5,-133.18 262,-123.18 258.5,-133.18 265.5,-133.18"/>
<text text-anchor="middle" x="274.5" y="-144.8" font-family="Times,serif" font-size="14.00">has</text>
</g>
<!-- cluster_id -->
<g id="node13" class="node">
<title>cluster_id</title>
<ellipse fill="none" stroke="black" cx="576" cy="-105" rx="55.79" ry="18"/>
<text text-anchor="middle" x="576" y="-101.3" font-family="Times,serif" font-size="14.00">cluster_id</text>
</g>
<!-- ProtoVertex&#45;&gt;cluster_id -->
<g id="edge13" class="edge">
<title>ProtoVertex&#45;&gt;cluster_id</title>
<path fill="none" stroke="black" d="M541.7,-173.8C547.74,-161.85 555.91,-145.72 562.75,-132.18"/>
<polygon fill="black" stroke="black" points="566.07,-133.39 567.46,-122.89 559.82,-130.23 566.07,-133.39"/>
<text text-anchor="middle" x="570.5" y="-144.8" font-family="Times,serif" font-size="14.00">has</text>
</g>
<!-- vertex_point -->
<g id="node14" class="node">
<title>vertex_point</title>
<ellipse fill="none" stroke="black" cx="433" cy="-105" rx="68.79" ry="18"/>
<text text-anchor="middle" x="433" y="-101.3" font-family="Times,serif" font-size="14.00">vertex_point</text>
</g>
<!-- ProtoVertex&#45;&gt;vertex_point -->
<g id="edge14" class="edge">
<title>ProtoVertex&#45;&gt;vertex_point</title>
<path fill="none" stroke="black" d="M512.76,-173.8C497.56,-160.88 476.58,-143.05 459.96,-128.91"/>
<polygon fill="black" stroke="black" points="462.07,-126.12 452.19,-122.31 457.54,-131.45 462.07,-126.12"/>
<text text-anchor="middle" x="501.5" y="-144.8" font-family="Times,serif" font-size="14.00">has</text>
</g>
<!-- Point -->
<g id="node10" class="node">
<title>Point</title>
<polygon fill="none" stroke="black" points="374,-36 320,-36 320,0 374,0 374,-36"/>
<text text-anchor="middle" x="347" y="-14.3" font-family="Times,serif" font-size="14.00">Point</text>
</g>
<!-- wire&#45;cell&#45;xxx&#45;main -->
<g id="node11" class="node">
<title>wire&#45;cell&#45;xxx&#45;main</title>
<ellipse fill="none" stroke="black" cx="584" cy="-671.34" rx="94.78" ry="18"/>
<text text-anchor="middle" x="584" y="-667.64" font-family="Times,serif" font-size="14.00">wire&#45;cell&#45;xxx&#45;main</text>
</g>
<!-- wire&#45;cell&#45;xxx&#45;main&#45;&gt;NeutrinoID -->
<g id="edge1" class="edge">
<title>wire&#45;cell&#45;xxx&#45;main&#45;&gt;NeutrinoID</title>
<path fill="none" stroke="black" d="M584,-653.13C584,-641.5 584,-625.88 584,-612.57"/>
<polygon fill="black" stroke="black" points="587.5,-612.51 584,-602.51 580.5,-612.51 587.5,-612.51"/>
<text text-anchor="middle" x="596.5" y="-624.14" font-family="Times,serif" font-size="14.00">has</text>
</g>
<!-- segment_points&#45;&gt;Point -->
<g id="edge23" class="edge">
<title>segment_points&#45;&gt;Point</title>
<path fill="none" stroke="black" stroke-dasharray="5,2" d="M278.79,-87.21C291.28,-74.72 308.52,-57.48 322.54,-43.46"/>
<polygon fill="black" stroke="black" points="325.35,-45.6 329.95,-36.05 320.4,-40.65 325.35,-45.6"/>
<text text-anchor="middle" x="316.5" y="-57.8" font-family="Times,serif" font-size="14.00">is</text>
</g>
<!-- vertex_point&#45;&gt;Point -->
<g id="edge22" class="edge">
<title>vertex_point&#45;&gt;Point</title>
<path fill="none" stroke="black" stroke-dasharray="5,2" d="M416.01,-87.21C403.37,-74.72 385.93,-57.48 371.74,-43.46"/>
<polygon fill="black" stroke="black" points="373.82,-40.59 364.25,-36.05 368.9,-45.57 373.82,-40.59"/>
<text text-anchor="middle" x="402.5" y="-57.8" font-family="Times,serif" font-size="14.00">is</text>
</g>
<!-- start_segment&#45;&gt;ProtoSegment -->
<g id="edge20" class="edge">
<title>start_segment&#45;&gt;ProtoSegment</title>
<path fill="none" stroke="black" stroke-dasharray="5,2" d="M124.25,-273.22C151.49,-257.35 193.61,-232.83 224.1,-215.07"/>
<polygon fill="black" stroke="black" points="225.88,-218.08 232.76,-210.02 222.36,-212.03 225.88,-218.08"/>
<text text-anchor="middle" x="206.5" y="-231.8" font-family="Times,serif" font-size="14.00">is</text>
</g>
<!-- start_vertex&#45;&gt;ProtoVertex -->
<g id="edge21" class="edge">
<title>start_vertex&#45;&gt;ProtoVertex</title>
<path fill="none" stroke="black" stroke-dasharray="5,2" d="M495.22,-271.91C502.22,-257.29 512.39,-236.05 520.41,-219.3"/>
<polygon fill="black" stroke="black" points="523.69,-220.56 524.85,-210.03 517.37,-217.54 523.69,-220.56"/>
<text text-anchor="middle" x="522.5" y="-231.8" font-family="Times,serif" font-size="14.00">is</text>
</g>
</g>
</svg>
